<?xml version="1.0" standalone="no"?>
<!DOCTYPE svg PUBLIC "-//W3C//DTD SVG 20010904//EN"
 "http://www.w3.org/TR/2001/REC-SVG-20010904/DTD/svg10.dtd">
<svg version="1.0" xmlns="http://www.w3.org/2000/svg"
 width="1320.000000pt" height="1000.000000pt" viewBox="0 0 1320.000000 1000.000000"
 preserveAspectRatio="xMidYMid meet">
<metadata>
Created by potrace 1.16, written by Peter Selinger 2001-2019
</metadata>
<g transform="translate(0.000000,1000.000000) scale(0.100000,-0.100000)"
fill="#000000" stroke="none">
<path d="M0 5000 l0 -5000 6600 0 6600 0 0 5000 0 5000 -6600 0 -6600 0 0
-5000z m5014 424 c18 -18 22 -95 6 -125 -10 -18 -24 -19 -313 -19 -222 0 -306
3 -315 12 -16 16 -16 120 0 136 9 9 91 12 309 12 257 0 300 -2 313 -16z m348
-119 c56 -74 105 -135 108 -134 3 0 50 60 105 132 l100 132 68 3 c110 5 122
-21 54 -108 -23 -30 -84 -110 -135 -176 l-93 -122 146 -188 c177 -230 179
-238 65 -242 -41 -1 -80 1 -86 5 -5 5 -59 72 -119 151 -60 78 -112 139 -115
135 -4 -5 -55 -72 -114 -150 l-107 -143 -73 0 c-76 0 -104 13 -93 44 3 7 69
96 146 196 78 100 141 186 141 191 0 5 -58 85 -128 177 -153 199 -146 187
-132 212 9 17 21 20 85 20 l74 0 103 -135z m1121 103 c113 -53 163 -142 155
-272 -8 -113 -62 -196 -158 -240 -38 -17 -71 -21 -202 -24 l-158 -4 0 -122 c0
-82 -4 -126 -12 -134 -7 -7 -37 -12 -68 -12 -31 0 -61 5 -68 12 -18 18 -17
799 1 817 9 9 65 11 232 9 215 -3 221 -4 278 -30z m905 20 c16 -16 16 -120 0
-136 -9 -9 -75 -12 -235 -12 l-223 0 0 -90 0 -90 198 0 c141 0 201 -3 210 -12
16 -16 16 -120 0 -136 -9 -9 -69 -12 -210 -12 l-198 0 0 -90 0 -90 223 0 c160
0 226 -3 235 -12 12 -12 17 -104 6 -132 -5 -14 -42 -16 -308 -16 -222 0 -305
3 -314 12 -16 16 -17 779 -2 809 10 18 24 19 308 19 219 0 301 -3 310 -12z
m354 -43 c24 -30 115 -153 203 -274 88 -121 163 -220 168 -220 4 -1 7 117 7
262 0 191 3 266 12 275 7 7 37 12 68 12 31 0 61 -5 68 -12 17 -17 17 -799 0
-816 -7 -7 -40 -12 -80 -12 l-67 0 -203 277 -203 278 -3 -264 c-1 -175 -6
-269 -13 -278 -7 -8 -34 -13 -75 -13 -52 0 -65 3 -74 19 -13 26 -14 760 0 795
9 25 14 26 80 26 l70 0 42 -55z m1143 40 c117 -31 193 -101 214 -197 17 -73
10 -79 -72 -76 l-71 3 -20 39 c-35 67 -64 81 -164 81 -99 0 -149 -16 -163 -53
-23 -59 7 -79 194 -129 154 -40 226 -73 272 -124 45 -50 60 -107 46 -176 -17
-88 -64 -143 -158 -186 -41 -18 -66 -21 -173 -21 -107 0 -133 3 -185 23 -111
43 -194 155 -183 247 l3 29 75 0 75 0 13 -40 c25 -79 93 -110 223 -103 97 6
143 29 147 77 6 58 -23 75 -201 122 -181 48 -262 93 -297 163 -45 94 -11 208
83 280 68 52 226 71 342 41z m999 9 c20 -8 23 -123 4 -142 -9 -9 -75 -12 -235
-12 l-223 0 0 -90 0 -90 194 0 c107 0 201 -3 210 -6 12 -5 16 -20 16 -64 0
-96 16 -90 -216 -90 l-204 0 0 -90 0 -90 224 0 c180 0 226 -3 235 -14 7 -9 11
-40 9 -78 l-3 -63 -305 -3 c-278 -2 -306 -1 -317 15 -16 21 -19 757 -3 797
l10 26 294 0 c162 0 301 -3 310 -6z m314 -6 c8 -8 12 -52 12 -133 0 -81 -4
-125 -12 -133 -12 -12 -104 -17 -132 -6 -13 5 -16 27 -16 133 0 85 4 131 12
139 7 7 37 12 68 12 31 0 61 -5 68 -12z m695 -3 c87 -22 147 -57 204 -117 66
-71 100 -140 114 -232 17 -114 -13 -256 -54 -256 -7 0 -34 21 -59 48 l-46 47
-4 90 c-5 101 -23 148 -80 202 -47 45 -101 65 -178 65 -75 1 -146 -25 -193
-70 -115 -109 -96 -340 36 -425 50 -33 135 -51 194 -42 l45 7 -36 37 c-20 20
-36 46 -36 57 0 23 78 104 101 104 8 0 77 -63 154 -140 137 -137 139 -139 125
-165 -18 -34 -76 -85 -96 -85 -9 0 -31 16 -49 35 l-32 35 -48 -21 c-67 -30
-199 -37 -281 -15 -280 73 -407 391 -257 648 96 165 287 242 476 193z m-5933
-345 c25 -25 27 -95 4 -128 -15 -22 -18 -22 -280 -22 -164 0 -273 4 -285 10
-15 9 -19 22 -19 66 0 100 -18 94 290 94 257 0 271 -1 290 -20z m5238 8 c9 -9
12 -77 12 -243 0 -166 -3 -234 -12 -243 -12 -12 -104 -17 -132 -6 -14 5 -16
36 -16 243 0 171 3 240 12 249 16 16 120 16 136 0z m-5178 -357 c13 -25 13
-97 0 -122 -10 -18 -24 -19 -313 -19 -222 0 -306 3 -315 12 -16 16 -16 120 0
136 9 9 93 12 315 12 289 0 303 -1 313 -19z"/>
<path d="M6120 5155 l0 -125 119 0 c65 0 132 3 150 6 70 14 105 86 80 165 -22
67 -55 79 -216 79 l-133 0 0 -125z"/>
</g>
</svg>
